<svg version="1.1" xmlns="http://www.w3.org/2000/svg" viewBox="-3969.386611699859 -1759.104052734375 8704.363078069488 2962.176123046875"><desc>Created with Snap</desc><defs></defs><g><rect x="-3969.386611699859" y="-1759.104052734375" width="8704.363078069488" height="2962.176123046875" fill="#4361ee" style=""></rect><g transform="matrix(37.8216,0,0,37.8216,-3800.0085,-2238.1774)"><path d="M60.733,32.344L49.179,20.789L37.624,32.344l11.555,11.556L60.733,32.344z M49.179,22.203l10.141,10.141L49.179,42.485  L39.038,32.344L49.179,22.203z M37.624,71.308l11.555,11.556l11.555-11.556L49.179,59.753L37.624,71.308z M49.179,81.449  L39.038,71.308l10.141-10.141l10.141,10.141L49.179,81.449z M40.679,71.308l8.5,8.501l8.501-8.501l-8.501-8.5L40.679,71.308z   M51.613,66.656l-2.435,2.434l-2.434-2.434l2.434-2.434L51.613,66.656z M49.179,78.395l-7.086-7.087l3.945-3.945l3.141,3.141  l3.142-3.141l3.945,3.945L49.179,78.395z M57.68,32.344l-8.501-8.5l-8.5,8.5l8.5,8.501L57.68,32.344z M46.755,37.006l2.424-2.424  l2.425,2.424l-2.425,2.425L46.755,37.006z M49.179,25.258l7.087,7.086l-3.955,3.955l-3.132-3.131l-3.131,3.131l-3.955-3.955  L49.179,25.258z M8.073,51.996l3.643-3.642l0.521,0.521l0.707-0.707l-1.228-1.228l-5.057,5.056l5.057,5.056L24.387,44.38  l-0.707-0.707L11.716,55.638L8.073,51.996z M33.839,48.509l-3.328,3.327l3.485,3.484l0.707-0.707l-2.778-2.777l2.621-2.62l2.78,2.78  l-7.318,7.317l-0.53-0.529l-0.707,0.707l1.237,1.236l8.732-8.731l-8.677-8.677L16.385,56.998l0.707,0.707l12.972-12.972  L33.839,48.509z M30.063,40.305L11.715,58.652l-6.657-6.656l6.657-6.657l3.318,3.317l0.707-0.707l-4.025-4.024l-8.071,8.071  l8.071,8.07l18.349-18.348l10.277,10.277L30.008,62.328l-6.944-6.944l-0.707,0.707l7.651,7.651l11.747-11.746L30.063,40.305z   M90.629,52.051l-3.643,3.642l-0.521-0.521l-0.707,0.707l1.228,1.228l5.057-5.056l-5.057-5.056L74.315,59.667l0.707,0.707  l11.964-11.965L90.629,52.051z M64.504,55.179l3.343-3.343l-3.128-3.128l3.975-3.975l0.531,0.529l0.707-0.707l-1.238-1.236  l-8.731,8.731l8.677,8.677l13.679-13.679l-0.707-0.707L68.639,59.313L64.504,55.179z M64.012,49.415l2.421,2.421l-2.636,2.636  l-2.421-2.421L64.012,49.415z M86.987,43.98L68.639,62.328L58.361,52.051l10.333-10.332l6.944,6.944l0.707-0.707l-7.651-7.651  L56.947,52.051l11.691,11.691l18.349-18.348l6.656,6.656l-6.656,6.657l-3.318-3.317l-0.707,0.707l4.025,4.024l8.07-8.071  L86.987,43.98z M66.418,38.022l-0.707-0.707L51.965,51.062l-2.006-2.006l13.744-13.744l-0.707-0.707L49.251,48.348L35.416,34.513  l-0.707,0.707l13.835,13.835l-2.007,2.007L32.705,37.229l-0.707,0.707l13.833,13.832L31.946,65.653l0.707,0.707l13.885-13.885  l2.006,2.006L34.671,68.355l0.707,0.707l13.873-13.873l13.791,13.79l0.707-0.707l-13.791-13.79l2.007-2.007L65.78,66.291  l0.707-0.707L52.672,51.769L66.418,38.022z M49.251,53.775l-2.006-2.006l2.007-2.007l2.006,2.006L49.251,53.775z" fill="#ffffff" style=""></path><desc>Created with Snap</desc><defs></defs></g><g><g transform="matrix(1.024,0,0,-1.024,0,0)"><path d="M139 0Q123 0 111 11Q100 23 100 39L100 742Q100 759 111 770Q123 781 139 781Q163 781 174 761L511 91L477 91L808 761Q820 781 843 781Q859 781 870 770Q881 759 881 742L881 39Q881 23 870 11Q859 0 843 0Q826 0 814 11Q803 23 803 39L803 641L820 640L525 37Q514 18 491 18Q466 18 455 42L158 636L178 641L178 39Q178 23 166 11Q155 0 139 0ZM1165 -238Q1157 -238 1147 -234Q1113 -219 1128 -186L1451 526Q1466 558 1499 544Q1533 530 1518 497L1194 -215Q1184 -238 1165 -238ZM1276 17Q1261 10 1248 14Q1235 19 1227 34L1004 496Q997 511 1002 524Q1007 537 1022 544Q1037 551 1050 546Q1063 542 1070 527L1289 65Q1297 50 1294 37Q1291 24 1276 17ZM1899 0Q1883 0 1871 11Q1860 23 1860 39L1860 742Q1860 759 1871 770Q1882 781 1899 781L2368 781Q2385 781 2396 770Q2407 760 2407 743Q2407 728 2396 717Q2385 706 2368 706L1938 706L1938 430L2251 430Q2268 430 2279 419Q2290 408 2290 392Q2290 376 2279 365Q2268 354 2251 354L1938 354L1938 39Q1938 23 1927 11Q1916 0 1899 0ZM2668 0L2655 0Q2615 0 2583 22Q2552 44 2534 83Q2517 122 2517 173L2517 743Q2517 760 2527 770Q2538 781 2555 781Q2572 781 2582 770Q2593 760 2593 743L2593 173Q2593 130 2610 103Q2628 76 2655 76L2680 76Q2695 76 2704 65Q2713 55 2713 38Q2713 21 2700 10Q2688 0 2668 0ZM3067 -5Q2986 -5 2923 30Q2861 66 2825 129Q2790 192 2790 273Q2790 355 2823 417Q2857 480 2916 516Q2975 552 3052 552Q3128 552 3184 517Q3241 483 3272 422Q3303 361 3303 283Q3303 267 3293 257Q3283 248 3267 248L2842 248L2842 312L3275 312L3232 281Q3233 339 3211 385Q3189 431 3148 457Q3108 483 3052 483Q2995 483 2952 456Q2909 429 2885 381Q2862 334 2862 273Q2862 212 2888 165Q2915 118 2961 91Q3007 64 3067 64Q3103 64 3139 76Q3176 89 3198 108Q3209 117 3223 117Q3237 118 3247 110Q3260 98 3260 84Q3261 70 3249 60Q3216 32 3165 13Q3114 -5 3067 -5ZM3681 -5Q3600 -5 3537 30Q3475 66 3439 129Q3404 192 3404 273Q3404 355 3437 417Q3471 480 3530 516Q3589 552 3666 552Q3742 552 3798 517Q3855 483 3886 422Q3917 361 3917 283Q3917 267 3907 257Q3897 248 3881 248L3456 248L3456 312L3889 312L3846 281Q3847 339 3825 385Q3803 431 3762 457Q3722 483 3666 483Q3609 483 3566 456Q3523 429 3499 381Q3476 334 3476 273Q3476 212 3502 165Q3529 118 3575 91Q3621 64 3681 64Q3717 64 3753 76Q3790 89 3812 108Q3823 117 3837 117Q3851 118 3861 110Q3874 98 3874 84Q3875 70 3863 60Q3830 32 3779 13Q3728 -5 3681 -5ZM4282 0L4261 0Q4208 0 4166 25Q4125 50 4101 93Q4077 137 4077 193L4077 682Q4077 699 4087 710Q4098 721 4115 721Q4132 721 4143 710Q4154 699 4154 682L4154 193Q4154 142 4184 109Q4214 77 4261 77L4288 77Q4304 77 4314 66Q4324 55 4324 38Q4324 21 4312 10Q4300 0 4282 0ZM4267 460L4012 460Q3997 460 3987 469Q3977 479 3977 493Q3977 508 3987 517Q3997 527 4012 527L4267 527Q4282 527 4292 517Q4302 508 4302 493Q4302 479 4292 469Q4282 460 4267 460Z" fill="#ffffff" style=""></path></g></g></g></svg>